{
  "accessors": [
    {
      "bufferView": 1,
      "componentType": 5123,
      "type": "SCALAR",
      "count": 3264
    },
    {
      "bufferView": 2,
      "componentType": 5126,
      "type": "VEC3",
      "count": 2176,
      "min": [0, 0, 0],
      "max": [16, 16, 1]
    },
    {
      "bufferView": 2,
      "componentType": 5126,
      "type": "VEC3",
      "byteOffset": 12,
      "count": 2176
    },
    {
      "bufferView": 2,
      "componentType": 5126,
      "type": "VEC2",
      "byteOffset": 24,
      "count": 2176
    },
    {
      "bufferView": 3,
      "componentType": 5123,
      "type": "SCALAR",
      "count": 3264
    },
    {
      "bufferView": 4,
      "componentType": 5126,
      "type": "VEC3",
      "count": 2176,
      "min": [0, 0, 0],
      "max": [16, 16, 1]
    },
    {
      "bufferView": 4,
      "componentType": 5126,
      "type": "VEC3",
      "byteOffset": 12,
      "count": 2176
    },
    {
      "bufferView": 4,
      "componentType": 5126,
      "type": "VEC2",
      "byteOffset": 24,
      "count": 2176
    },
    {
      "bufferView": 5,
      "componentType": 5123,
      "type": "SCALAR",
      "count": 3264
    },
    {
      "bufferView": 6,
      "componentType": 5126,
      "type": "VEC3",
      "count": 2176,
      "min": [0, 0, 0],
      "max": [16, 16, 1]
    },
    {
      "bufferView": 6,
      "componentType": 5126,
      "type": "VEC3",
      "byteOffset": 12,
      "count": 2176
    },
    {
      "bufferView": 6,
      "componentType": 5126,
      "type": "VEC2",
      "byteOffset": 24,
      "count": 2176
    },
    {
      "bufferView": 7,
      "componentType": 5123,
      "type": "SCALAR",
      "count": 3264
    },
    {
      "bufferView": 8,
      "componentType": 5126,
      "type": "VEC3",
      "count": 2176,
      "min": [0, 0, 0],
      "max": [16, 16, 1]
    },
    {
      "bufferView": 8,
      "componentType": 5126,
      "type": "VEC3",
      "byteOffset": 12,
      "count": 2176
    },
    {
      "bufferView": 8,
      "componentType": 5126,
      "type": "VEC2",
      "byteOffset": 24,
      "count": 2176
    },
    {
      "bufferView": 9,
      "componentType": 5123,
      "type": "SCALAR",
      "count": 1944
    },
    {
      "bufferView": 10,
      "componentType": 5126,
      "type": "VEC3",
      "count": 1296,
      "min": [0, 0, 1],
      "max": [16, 16, 7]
    },
    {
      "bufferView": 10,
      "componentType": 5126,
      "type": "VEC3",
      "byteOffset": 12,
      "count": 1296
    },
    {
      "bufferView": 10,
      "componentType": 5126,
      "type": "VEC2",
      "byteOffset": 24,
      "count": 1296
    },
    {
      "bufferView": 11,
      "componentType": 5123,
      "type": "SCALAR",
      "count": 1944
    },
    {
      "bufferView": 12,
      "componentType": 5126,
      "type": "VEC3",
      "count": 1296,
      "min": [0, 0, 1],
      "max": [16, 16, 7]
    },
    {
      "bufferView": 12,
      "componentType": 5126,
      "type": "VEC3",
      "byteOffset": 12,
      "count": 1296
    },
    {
      "bufferView": 12,
      "componentType": 5126,
      "type": "VEC2",
      "byteOffset": 24,
      "count": 1296
    },
    {
      "bufferView": 13,
      "componentType": 5123,
      "type": "SCALAR",
      "count": 1944
    },
    {
      "bufferView": 14,
      "componentType": 5126,
      "type": "VEC3",
      "count": 1296,
      "min": [0, 0, 1],
      "max": [16, 16, 7]
    },
    {
      "bufferView": 14,
      "componentType": 5126,
      "type": "VEC3",
      "byteOffset": 12,
      "count": 1296
    },
    {
      "bufferView": 14,
      "componentType": 5126,
      "type": "VEC2",
      "byteOffset": 24,
      "count": 1296
    },
    {
      "bufferView": 15,
      "componentType": 5123,
      "type": "SCALAR",
      "count": 1944
    },
    {
      "bufferView": 16,
      "componentType": 5126,
      "type": "VEC3",
      "count": 1296,
      "min": [0, 0, 1],
      "max": [16, 16, 7]
    },
    {
      "bufferView": 16,
      "componentType": 5126,
      "type": "VEC3",
      "byteOffset": 12,
      "count": 1296
    },
    {
      "bufferView": 16,
      "componentType": 5126,
      "type": "VEC2",
      "byteOffset": 24,
      "count": 1296
    }
  ],
  "asset": {
    "generator": "goxel",
    "version": "2.0"
  },
  "bufferViews": [
    {
      "buffer": 0,
      "byteLength": 79
    },
    {
      "buffer": 2,
      "byteLength": 6528
    },
    {
      "buffer": 1,
      "byteLength": 69632,
      "byteStride": 32
    },
    {
      "buffer": 4,
      "byteLength": 6528
    },
    {
      "buffer": 3,
      "byteLength": 69632,
      "byteStride": 32
    },
    {
      "buffer": 6,
      "byteLength": 6528
    },
    {
      "buffer": 5,
      "byteLength": 69632,
      "byteStride": 32
    },
    {
      "buffer": 8,
      "byteLength": 6528
    },
    {
      "buffer": 7,
      "byteLength": 69632,
      "byteStride": 32
    },
    {
      "buffer": 10,
      "byteLength": 3888
    },
    {
      "buffer": 9,
      "byteLength": 41472,
      "byteStride": 32
    },
    {
      "buffer": 12,
      "byteLength": 3888
    },
    {
      "buffer": 11,
      "byteLength": 41472,
      "byteStride": 32
    },
    {
      "buffer": 14,
      "byteLength": 3888
    },
    {
      "buffer": 13,
      "byteLength": 41472,
      "byteStride": 32
    },
    {
      "buffer": 16,
      "byteLength": 3888
    },
    {
      "buffer": 15,
      "byteLength": 41472,
      "byteStride": 32
    }
  ],
  "buffers": [
    {
      "uri": "data:application/octet-stream;base64,",
      "byteLength": 79
    },
    {
      "uri": "data:application/octet-stream;base64,",
      "byteLength": 69632
    },
    {
      "uri": "data:application/octet-stream;base64,",
      "byteLength": 6528
    },
    {
      "uri": "data:application/octet-stream;base64,",
      "byteLength": 69632
    },
    {
      "uri": "data:application/octet-stream;base64,",
      "byteLength": 6528
    },
    {
      "uri": "data:application/octet-stream;base64,",
      "byteLength": 69632
    },
    {
      "uri": "data:application/octet-stream;base64,",
      "byteLength": 6528
    },
    {
      "uri": "data:application/octet-stream;base64,",
      "byteLength": 69632
    },
    {
      "uri": "data:application/octet-stream;base64,",
      "byteLength": 6528
    },
    {
      "uri": "data:application/octet-stream;base64,",
      "byteLength": 41472
    },
    {
      "uri": "data:application/octet-stream;base64,",
      "byteLength": 3888
    },
    {
      "uri": "data:application/octet-stream;base64,",
      "byteLength": 41472
    },
    {
      "uri": "data:application/octet-stream;base64,",
      "byteLength": 3888
    },
    {
      "uri": "data:application/octet-stream;base64,",
      "byteLength": 41472
    },
    {
      "uri": "data:application/octet-stream;base64,",
      "byteLength": 3888
    },
    {
      "uri": "data:application/octet-stream;base64,",
      "byteLength": 41472
    },
    {
      "uri": "data:application/octet-stream;base64,",
      "byteLength": 3888
    }
  ],
  "images": [
    {
      "bufferView": 0,
      "mimeType": "image/png"
    }
  ],
  "meshes": [
    {
      "primitives": [
        {
          "indices": 0,
          "material": 0,
          "attributes": {
            "POSITION": 1,
            "NORMAL": 2,
            "TEXCOORD_0": 3
          }
        }
      ]
    },
    {
      "primitives": [
        {
          "indices": 4,
          "material": 0,
          "attributes": {
            "POSITION": 5,
            "NORMAL": 6,
            "TEXCOORD_0": 7
          }
        }
      ]
    },
    {
      "primitives": [
        {
          "indices": 8,
          "material": 0,
          "attributes": {
            "POSITION": 9,
            "NORMAL": 10,
            "TEXCOORD_0": 11
          }
        }
      ]
    },
    {
      "primitives": [
        {
          "indices": 12,
          "material": 0,
          "attributes": {
            "POSITION": 13,
            "NORMAL": 14,
            "TEXCOORD_0": 15
          }
        }
      ]
    },
    {
      "primitives": [
        {
          "indices": 16,
          "material": 1,
          "attributes": {
            "POSITION": 17,
            "NORMAL": 18,
            "TEXCOORD_0": 19
          }
        }
      ]
    },
    {
      "primitives": [
        {
          "indices": 20,
          "material": 1,
          "attributes": {
            "POSITION": 21,
            "NORMAL": 22,
            "TEXCOORD_0": 23
          }
        }
      ]
    },
    {
      "primitives": [
        {
          "indices": 24,
          "material": 1,
          "attributes": {
            "POSITION": 25,
            "NORMAL": 26,
            "TEXCOORD_0": 27
          }
        }
      ]
    },
    {
      "primitives": [
        {
          "indices": 28,
          "material": 1,
          "attributes": {
            "POSITION": 29,
            "NORMAL": 30,
            "TEXCOORD_0": 31
          }
        }
      ]
    }
  ],
  "materials": [
    {
      "name": "Material.1",
      "pbrMetallicRoughness": {
        "baseColorTexture": {
          "index": 0
        },
        "metallicFactor": 0.200000003,
        "roughnessFactor": 0.5
      }
    },
    {
      "name": "Material.2",
      "pbrMetallicRoughness": {
        "baseColorTexture": {
          "index": 0
        },
        "metallicFactor": 0.200000003,
        "roughnessFactor": 0.5,
        "baseColorFactor": [0, 1, 0.200000003, 1]
      }
    }
  ],
  "nodes": [
    {
      "children": [ 5, 10 ],
      "matrix": [1, 0, 0, 0, 0, 0, -1, 0, 0, 1, 0, 0, 0, 0, 0, 1]
    },
    {
      "mesh": 0,
      "translation": [-16, -16, 0]
    },
    {
      "mesh": 1,
      "translation": [0, -16, 0]
    },
    {
      "mesh": 2,
      "translation": [-16, 0, 0]
    },
    {
      "mesh": 3,
      "translation": [0, 0, 0]
    },
    {
      "children": [ 1, 2, 3, 4 ]
    },
    {
      "mesh": 4,
      "translation": [-16, -16, 0]
    },
    {
      "mesh": 5,
      "translation": [-16, 0, 0]
    },
    {
      "mesh": 6,
      "translation": [0, 0, 0]
    },
    {
      "mesh": 7,
      "translation": [0, -16, 0]
    },
    {
      "children": [ 6, 7, 8, 9 ]
    }
  ],
  "scenes": [
    {
      "nodes": [ 0 ]
    }
  ],
  "textures": [
    {
      "source": 0
    }
  ]
}
