{
  "accessors": [
    {
      "bufferView": 1,
      "componentType": 5123,
      "type": "SCALAR",
      "count": 4824
    },
    {
      "bufferView": 2,
      "componentType": 5126,
      "type": "VEC3",
      "count": 3216,
      "min": [0, 0, 0],
      "max": [16, 16, 4]
    },
    {
      "bufferView": 2,
      "componentType": 5126,
      "type": "VEC3",
      "byteOffset": 12,
      "count": 3216
    },
    {
      "bufferView": 2,
      "componentType": 5126,
      "type": "VEC2",
      "byteOffset": 24,
      "count": 3216
    },
    {
      "bufferView": 3,
      "componentType": 5123,
      "type": "SCALAR",
      "count": 4560
    },
    {
      "bufferView": 4,
      "componentType": 5126,
      "type": "VEC3",
      "count": 3040,
      "min": [0, 0, 0],
      "max": [16, 16, 4]
    },
    {
      "bufferView": 4,
      "componentType": 5126,
      "type": "VEC3",
      "byteOffset": 12,
      "count": 3040
    },
    {
      "bufferView": 4,
      "componentType": 5126,
      "type": "VEC2",
      "byteOffset": 24,
      "count": 3040
    },
    {
      "bufferView": 5,
      "componentType": 5123,
      "type": "SCALAR",
      "count": 4380
    },
    {
      "bufferView": 6,
      "componentType": 5126,
      "type": "VEC3",
      "count": 2920,
      "min": [0, 0, 0],
      "max": [16, 16, 4]
    },
    {
      "bufferView": 6,
      "componentType": 5126,
      "type": "VEC3",
      "byteOffset": 12,
      "count": 2920
    },
    {
      "bufferView": 6,
      "componentType": 5126,
      "type": "VEC2",
      "byteOffset": 24,
      "count": 2920
    },
    {
      "bufferView": 7,
      "componentType": 5123,
      "type": "SCALAR",
      "count": 4812
    },
    {
      "bufferView": 8,
      "componentType": 5126,
      "type": "VEC3",
      "count": 3208,
      "min": [0, 0, 0],
      "max": [16, 16, 4]
    },
    {
      "bufferView": 8,
      "componentType": 5126,
      "type": "VEC3",
      "byteOffset": 12,
      "count": 3208
    },
    {
      "bufferView": 8,
      "componentType": 5126,
      "type": "VEC2",
      "byteOffset": 24,
      "count": 3208
    },
    {
      "bufferView": 9,
      "componentType": 5123,
      "type": "SCALAR",
      "count": 624
    },
    {
      "bufferView": 10,
      "componentType": 5126,
      "type": "VEC3",
      "count": 416,
      "min": [11, 6, 0],
      "max": [15, 16, 1]
    },
    {
      "bufferView": 10,
      "componentType": 5126,
      "type": "VEC3",
      "byteOffset": 12,
      "count": 416
    },
    {
      "bufferView": 10,
      "componentType": 5126,
      "type": "VEC2",
      "byteOffset": 24,
      "count": 416
    },
    {
      "bufferView": 11,
      "componentType": 5123,
      "type": "SCALAR",
      "count": 624
    },
    {
      "bufferView": 12,
      "componentType": 5126,
      "type": "VEC3",
      "count": 416,
      "min": [11, 0, 0],
      "max": [15, 10, 1]
    },
    {
      "bufferView": 12,
      "componentType": 5126,
      "type": "VEC3",
      "byteOffset": 12,
      "count": 416
    },
    {
      "bufferView": 12,
      "componentType": 5126,
      "type": "VEC2",
      "byteOffset": 24,
      "count": 416
    }
  ],
  "asset": {
    "generator": "goxel",
    "version": "2.0"
  },
  "bufferViews": [
    {
      "buffer": 0,
      "byteLength": 88
    },
    {
      "buffer": 2,
      "byteLength": 9648
    },
    {
      "buffer": 1,
      "byteLength": 102912,
      "byteStride": 32
    },
    {
      "buffer": 4,
      "byteLength": 9120
    },
    {
      "buffer": 3,
      "byteLength": 97280,
      "byteStride": 32
    },
    {
      "buffer": 6,
      "byteLength": 8760
    },
    {
      "buffer": 5,
      "byteLength": 93440,
      "byteStride": 32
    },
    {
      "buffer": 8,
      "byteLength": 9624
    },
    {
      "buffer": 7,
      "byteLength": 102656,
      "byteStride": 32
    },
    {
      "buffer": 10,
      "byteLength": 1248
    },
    {
      "buffer": 9,
      "byteLength": 13312,
      "byteStride": 32
    },
    {
      "buffer": 12,
      "byteLength": 1248
    },
    {
      "buffer": 11,
      "byteLength": 13312,
      "byteStride": 32
    }
  ],
  "buffers": [
    {
      "uri": "data:application/octet-stream;base64,",
      "byteLength": 88
    },
    {
      "uri": "data:application/octet-stream;base64,",
      "byteLength": 102912
    },
    {
      "uri": "data:application/octet-stream;base64,",
      "byteLength": 9648
    },
    {
      "uri": "data:application/octet-stream;base64,",
      "byteLength": 97280
    },
    {
      "uri": "data:application/octet-stream;base64,",
      "byteLength": 9120
    },
    {
      "uri": "data:application/octet-stream;base64,",
      "byteLength": 93440
    },
    {
      "uri": "data:application/octet-stream;base64,",
      "byteLength": 8760
    },
    {
      "uri": "data:application/octet-stream;base64,",
      "byteLength": 102656
    },
    {
      "uri": "data:application/octet-stream;base64,",
      "byteLength": 9624
    },
    {
      "uri": "data:application/octet-stream;base64,",
      "byteLength": 13312
    },
    {
      "uri": "data:application/octet-stream;base64,",
      "byteLength": 1248
    },
    {
      "uri": "data:application/octet-stream;base64,",
      "byteLength": 13312
    },
    {
      "uri": "data:application/octet-stream;base64,",
      "byteLength": 1248
    }
  ],
  "images": [
    {
      "bufferView": 0,
      "mimeType": "image/png"
    }
  ],
  "meshes": [
    {
      "primitives": [
        {
          "indices": 0,
          "material": 0,
          "attributes": {
            "POSITION": 1,
            "NORMAL": 2,
            "TEXCOORD_0": 3
          }
        }
      ]
    },
    {
      "primitives": [
        {
          "indices": 4,
          "material": 0,
          "attributes": {
            "POSITION": 5,
            "NORMAL": 6,
            "TEXCOORD_0": 7
          }
        }
      ]
    },
    {
      "primitives": [
        {
          "indices": 8,
          "material": 0,
          "attributes": {
            "POSITION": 9,
            "NORMAL": 10,
            "TEXCOORD_0": 11
          }
        }
      ]
    },
    {
      "primitives": [
        {
          "indices": 12,
          "material": 0,
          "attributes": {
            "POSITION": 13,
            "NORMAL": 14,
            "TEXCOORD_0": 15
          }
        }
      ]
    },
    {
      "primitives": [
        {
          "indices": 16,
          "material": 1,
          "attributes": {
            "POSITION": 17,
            "NORMAL": 18,
            "TEXCOORD_0": 19
          }
        }
      ]
    },
    {
      "primitives": [
        {
          "indices": 20,
          "material": 1,
          "attributes": {
            "POSITION": 21,
            "NORMAL": 22,
            "TEXCOORD_0": 23
          }
        }
      ]
    }
  ],
  "materials": [
    {
      "name": "Material.1",
      "pbrMetallicRoughness": {
        "baseColorTexture": {
          "index": 0
        },
        "metallicFactor": 0.200000003,
        "roughnessFactor": 0.5
      }
    },
    {
      "name": "Material.2",
      "pbrMetallicRoughness": {
        "baseColorTexture": {
          "index": 0
        },
        "metallicFactor": 0.200000003,
        "roughnessFactor": 0.5
      }
    }
  ],
  "nodes": [
    {
      "children": [ 5, 8 ],
      "matrix": [1, 0, 0, 0, 0, 0, -1, 0, 0, 1, 0, 0, 0, 0, 0, 1]
    },
    {
      "mesh": 0,
      "translation": [-16, -16, 0]
    },
    {
      "mesh": 1,
      "translation": [0, -16, 0]
    },
    {
      "mesh": 2,
      "translation": [-16, 0, 0]
    },
    {
      "mesh": 3,
      "translation": [0, 0, 0]
    },
    {
      "children": [ 1, 2, 3, 4 ]
    },
    {
      "mesh": 4,
      "translation": [0, -16, 0]
    },
    {
      "mesh": 5,
      "translation": [0, 0, 0]
    },
    {
      "children": [ 6, 7 ]
    }
  ],
  "scenes": [
    {
      "nodes": [ 0 ]
    }
  ],
  "textures": [
    {
      "source": 0
    }
  ]
}
