{
  "asset": {
    "generator": "Khronos glTF Blender I/O v3.3.32",
    "version": "2.0"
  },
  "scene": 0,
  "scenes": [
    {
      "name": "blend_export",
      "nodes": [
        0
      ]
    }
  ],
  "nodes": [
    {
      "mesh": 0,
      "name": "sledgehammer_01"
    }
  ],
  "materials": [
    {
      "doubleSided": true,
      "name": "sledgehammer_01",
      "normalTexture": {
        "index": 0
      },
      "pbrMetallicRoughness": {
        "baseColorTexture": {
          "index": 1
        },
        "metallicRoughnessTexture": {
          "index": 2
        }
      }
    }
  ],
  "meshes": [
    {
      "name": "Cube.008",
      "primitives": [
        {
          "attributes": {
            "POSITION": 0,
            "NORMAL": 1,
            "TEXCOORD_0": 2
          },
          "indices": 3,
          "material": 0
        }
      ]
    }
  ],
  "textures": [
    {
      "sampler": 0,
      "source": 0
    },
    {
      "sampler": 0,
      "source": 1
    },
    {
      "sampler": 0,
      "source": 2
    }
  ],
  "images": [
    {
      "mimeType": "image/jpeg",
      "name": "sledgehammer_01_nor_gl",
      "uri": "textures/sledgehammer_01_nor_gl_1k.jpg"
    },
    {
      "mimeType": "image/jpeg",
      "name": "sledgehammer_01_diff",
      "uri": "textures/sledgehammer_01_diff_1k.jpg"
    },
    {
      "mimeType": "image/jpeg",
      "name": "sledgehammer_01_metal-sledgehammer_01_rough",
      "uri": "textures/sledgehammer_01_arm_1k.jpg"
    }
  ],
  "accessors": [
    {
      "bufferView": 0,
      "componentType": 5126,
      "count": 1603,
      "max": [
        0.10422956198453903,
        0.2590640187263489,
        0.04523873329162598
      ],
      "min": [
        -0.10425744950771332,
        -0.7465572357177734,
        -0.04523841291666031
      ],
      "type": "VEC3"
    },
    {
      "bufferView": 1,
      "componentType": 5126,
      "count": 1603,
      "type": "VEC3"
    },
    {
      "bufferView": 2,
      "componentType": 5126,
      "count": 1603,
      "type": "VEC2"
    },
    {
      "bufferView": 3,
      "componentType": 5123,
      "count": 7788,
      "type": "SCALAR"
    }
  ],
  "bufferViews": [
    {
      "buffer": 0,
      "byteLength": 19236,
      "byteOffset": 0,
      "target": 34962
    },
    {
      "buffer": 0,
      "byteLength": 19236,
      "byteOffset": 19236,
      "target": 34962
    },
    {
      "buffer": 0,
      "byteLength": 12824,
      "byteOffset": 38472,
      "target": 34962
    },
    {
      "buffer": 0,
      "byteLength": 15576,
      "byteOffset": 51296,
      "target": 34963
    }
  ],
  "samplers": [
    {
      "magFilter": 9729,
      "minFilter": 9987
    }
  ],
  "buffers": [
    {
      "byteLength": 66872,
      "uri": "sledgehammer_01.bin"
    }
  ]
}